<svg xmlns="http://www.w3.org/2000/svg" width="1600" height="900" viewBox="0 0 1600 900">
  <defs>
    <linearGradient id="bg" x1="0" y1="0" x2="1" y2="1">
      <stop offset="0%" stop-color="#0B1F3A"/>
      <stop offset="60%" stop-color="#123E7A"/>
      <stop offset="100%" stop-color="#1E63B5"/>
    </linearGradient>
  </defs>
  <rect width="1600" height="900" fill="url(#bg)"/>
  <g opacity="0.22" stroke="#9BD7FF" stroke-width="2" fill="none">
    <path d="M120 760 L420 560 L770 620 L1080 430 L1470 520"/>
    <path d="M90 690 L450 500 L790 550 L1110 350 L1510 430"/>
  </g>
  <g fill="#D9F1FF" font-family="PingFang SC, Microsoft YaHei, sans-serif">
    <text x="120" y="260" font-size="68" font-weight="700">郑州“算力逆袭”真相</text>
    <text x="120" y="350" font-size="56" font-weight="600">不是风口，是一条430亿产业链</text>
    <text x="120" y="450" font-size="34" opacity="0.95">从交通枢纽到数字枢纽 · 产业升级深度观察</text>
    <text x="120" y="520" font-size="30" opacity="0.95">作者：余炜勋</text>
  </g>
  <g transform="translate(1130,150)">
    <rect x="0" y="0" width="320" height="560" rx="18" fill="#0A2448" opacity="0.78"/>
    <g fill="#79D0FF">
      <rect x="55" y="80" width="60" height="60" rx="10"/>
      <rect x="135" y="80" width="60" height="60" rx="10"/>
      <rect x="215" y="80" width="60" height="60" rx="10"/>
      <rect x="55" y="170" width="220" height="20" rx="8"/>
      <rect x="55" y="210" width="220" height="20" rx="8"/>
      <rect x="55" y="250" width="220" height="20" rx="8"/>
      <rect x="55" y="310" width="100" height="100" rx="12"/>
      <rect x="175" y="310" width="100" height="100" rx="12"/>
      <rect x="55" y="440" width="220" height="20" rx="8"/>
    </g>
  </g>
</svg>